<svg xmlns="http://www.w3.org/2000/svg" viewBox="0 0 512 512" style="shape-rendering:geometricPrecision; text-rendering:geometricPrecision; image-rendering:optimizeQuality; fill-rule:evenodd; clip-rule:evenodd">
  <style>
    @media (prefers-color-scheme: dark) {
      path { fill: white }
    }
  </style>
  <g><path style="opacity:0.996" fill="#000000" d="M 69.5,31.5 C 193.5,31.3333 317.5,31.5 441.5,32C 461.333,37.1667 473.833,49.6667 479,69.5C 479.667,193.5 479.667,317.5 479,441.5C 473.833,461.333 461.333,473.833 441.5,479C 317.5,479.667 193.5,479.667 69.5,479C 49.6667,473.833 37.1667,461.333 32,441.5C 31.3333,317.5 31.3333,193.5 32,69.5C 37.3488,49.6518 49.8488,36.9852 69.5,31.5 Z M 79.5,63.5 C 198.535,63.0095 317.535,63.5095 436.5,65C 443.053,67.6008 446.553,72.4342 447,79.5C 447.5,106.165 447.667,132.831 447.5,159.5C 319.5,159.5 191.5,159.5 63.5,159.5C 63.3334,132.831 63.5,106.165 64,79.5C 65.3459,70.3224 70.5125,64.9891 79.5,63.5 Z M 63.5,191.5 C 191.5,191.5 319.5,191.5 447.5,191.5C 447.667,271.501 447.5,351.501 447,431.5C 445.833,440.667 440.667,445.833 431.5,447C 314.167,447.667 196.833,447.667 79.5,447C 70.3333,445.833 65.1667,440.667 64,431.5C 63.5,351.501 63.3333,271.501 63.5,191.5 Z"/></g>
  <g><path style="opacity:0.931" fill="#000000" d="M 103.5,95.5 C 116.191,93.5296 123.524,98.8629 125.5,111.5C 123.555,124.275 116.222,129.441 103.5,127C 92.8423,120.389 90.6756,111.556 97,100.5C 98.9651,98.4497 101.132,96.783 103.5,95.5 Z"/></g>
  <g><path style="opacity:0.928" fill="#000000" d="M 149.5,95.5 C 165.436,93.6028 172.602,100.603 171,116.5C 167.016,126.241 159.85,129.741 149.5,127C 140.549,121.814 137.716,114.314 141,104.5C 143.362,100.973 146.196,97.9734 149.5,95.5 Z"/></g>
  <g><path style="opacity:0.939" fill="#000000" d="M 196.5,95.5 C 215.18,95.1822 221.347,103.849 215,121.5C 208.402,128.043 200.902,129.209 192.5,125C 185.931,118.055 184.764,110.222 189,101.5C 191.114,98.8792 193.614,96.8792 196.5,95.5 Z"/></g>
  <g><path style="opacity:0.962" fill="#000000" d="M 281.5,239.5 C 297.985,237.817 305.151,245.151 303,261.5C 281,305.5 259,349.5 237,393.5C 230.055,400.069 222.222,401.236 213.5,397C 207.833,391.681 205.999,385.181 208,377.5C 230,333.5 252,289.5 274,245.5C 276.114,242.879 278.614,240.879 281.5,239.5 Z"/></g>
  <g><path style="opacity:0.96" fill="#000000" d="M 169.5,255.5 C 188.778,254.61 195.278,263.276 189,281.5C 176.319,294.014 163.819,306.681 151.5,319.5C 163.819,332.319 176.319,344.986 189,357.5C 192.333,364.167 192.333,370.833 189,377.5C 182.055,384.069 174.222,385.236 165.5,381C 148.333,363.833 131.167,346.667 114,329.5C 110.667,322.833 110.667,316.167 114,309.5C 132.091,290.907 150.591,272.907 169.5,255.5 Z"/></g>
  <g><path style="opacity:0.96" fill="#000000" d="M 329.5,255.5 C 335.105,254.908 340.439,255.741 345.5,258C 362.667,275.167 379.833,292.333 397,309.5C 400.333,316.167 400.333,322.833 397,329.5C 379.833,346.667 362.667,363.833 345.5,381C 327.133,387.294 318.633,380.794 320,361.5C 320.667,360.167 321.333,358.833 322,357.5C 334.681,344.986 347.181,332.319 359.5,319.5C 347.181,306.681 334.681,294.014 322,281.5C 316.677,270.374 319.177,261.707 329.5,255.5 Z"/></g>
</svg>
